<svg width="89" height="63" viewBox="0 0 89 63" fill="none" xmlns="http://www.w3.org/2000/svg">
<path d="M12.8572 59.1891L11.9393 60.5803L11.9443 60.5836L12.8572 59.1891ZM4.00895 48.3286L2.48202 48.9966L2.48305 48.9989L4.00895 48.3286ZM0.931295 31.2535L-0.735364 31.2486L0.931295 31.2535ZM4.03854 14.3264L2.51578 13.6489L2.51445 13.6519L4.03854 14.3264ZM12.8572 3.70263L13.7529 5.10813L13.7548 5.10694L12.8572 3.70263ZM40.2009 3.70263L39.3033 5.10696L39.3118 5.11229L40.2009 3.70263ZM49.0788 14.3264L50.6015 13.6489L49.0788 14.3264ZM52.1564 31.2535L50.4898 31.2486V31.2535H52.1564ZM49.0492 48.3582L47.5223 47.6901L49.0492 48.3582ZM40.2009 59.2187L41.1121 60.6143L41.1138 60.6132L40.2009 59.2187ZM34.1936 46.1387L35.6181 47.0039L35.6204 47L34.1936 46.1387ZM37.0937 31.2535H35.427L35.427 31.2584L37.0937 31.2535ZM35.762 20.4226L34.1702 20.9166L34.1712 20.9197L35.762 20.4226ZM32.0629 14.0305L33.1692 12.784L32.0629 14.0305ZM18.9237 16.6939L20.345 17.5644L20.3474 17.5604L18.9237 16.6939ZM15.994 31.2535L17.6607 31.2609L17.6607 31.2585L15.994 31.2535ZM17.2665 42.2916L15.6689 42.7666L15.6719 42.7765L17.2665 42.2916ZM20.9952 48.8316L19.8794 50.0697L19.8879 50.0773L20.9952 48.8316ZM26.5291 61.2807C21.5143 61.2807 17.2858 60.0962 13.7701 57.7947L11.9443 60.5836C16.0833 63.2931 20.9693 64.6141 26.5291 64.6141V61.2807ZM13.7751 57.798C10.2477 55.4706 7.49368 52.1169 5.53485 47.6582L2.48305 48.9989C4.6672 53.9705 7.81203 57.8571 11.9393 60.5803L13.7751 57.798ZM5.53588 47.6605C3.57973 43.1893 2.57872 37.7391 2.59795 31.2585L-0.735364 31.2486C-0.755591 38.065 0.295175 43.9981 2.48202 48.9966L5.53588 47.6605ZM2.59795 31.2585C2.6172 24.7721 3.62842 19.3715 5.56263 15.0009L2.51445 13.6519C0.345129 18.5538 -0.715154 24.4379 -0.735364 31.2486L2.59795 31.2585ZM5.56129 15.0039C7.51746 10.6072 10.2558 7.33688 13.7529 5.10813L11.9615 2.29712C7.84339 4.92159 4.70262 8.73378 2.51579 13.6489L5.56129 15.0039ZM13.7548 5.10694C17.2725 2.85848 21.5067 1.69978 26.5291 1.69978V-1.63355C20.9769 -1.63355 16.0965 -0.345909 11.9596 2.29832L13.7548 5.10694ZM26.5291 1.69978C31.5514 1.69978 35.7856 2.85848 39.3033 5.10694L41.0985 2.29832C36.9616 -0.345909 32.0812 -1.63355 26.5291 -1.63355V1.69978ZM39.3118 5.11229C42.847 7.34217 45.6019 10.6118 47.556 15.0039L50.6015 13.6489C48.4127 8.72923 45.2491 4.91629 41.0901 2.29296L39.3118 5.11229ZM47.556 15.0039C49.5078 19.3908 50.509 24.7872 50.4898 31.2486L53.8231 31.2585C53.8433 24.4623 52.7927 18.5739 50.6015 13.6489L47.556 15.0039ZM50.4898 31.2535C50.4898 37.7558 49.479 43.2176 47.5223 47.6901L50.5761 49.0262C52.7624 44.0291 53.8231 38.0877 53.8231 31.2535H50.4898ZM47.5223 47.6901C45.5632 52.168 42.8104 55.5184 39.2881 57.8243L41.1138 60.6132C45.2462 57.908 48.3922 54.018 50.5761 49.0262L47.5223 47.6901ZM39.2898 57.8231C35.796 60.1041 31.5677 61.2807 26.5291 61.2807V64.6141C32.1044 64.6141 36.9907 63.3049 41.1121 60.6143L39.2898 57.8231ZM26.5291 52.629C30.3878 52.629 33.4307 50.6054 35.6181 47.0039L32.7691 45.2735C31.0502 48.1036 28.9834 49.2957 26.5291 49.2957V52.629ZM35.6204 47C37.811 43.3712 38.7804 38.038 38.7604 31.2486L35.427 31.2584C35.4465 37.845 34.4824 42.4352 32.7668 45.2774L35.6204 47ZM38.7604 31.2535C38.7604 26.7769 38.3085 22.9837 37.3528 19.9254L34.1712 20.9197C34.9911 23.5432 35.427 26.9707 35.427 31.2535H38.7604ZM37.3538 19.9286C36.4118 16.8931 35.0511 14.4541 33.1692 12.784L30.9566 15.2771C32.2313 16.4084 33.3367 18.2307 34.1702 20.9166L37.3538 19.9286ZM33.1692 12.784C31.2859 11.1125 29.0476 10.2628 26.5291 10.2628V13.5961C28.2324 13.5961 29.6834 14.1471 30.9566 15.2771L33.1692 12.784ZM26.5291 10.2628C22.6943 10.2628 19.6701 12.2622 17.5001 15.8273L20.3474 17.5604C22.0441 14.7729 24.0901 13.5961 26.5291 13.5961V10.2628ZM17.5025 15.8233C15.3289 19.3721 14.3474 24.5971 14.3274 31.2485L17.6607 31.2585C17.6801 24.8102 18.6518 20.3288 20.345 17.5644L17.5025 15.8233ZM14.3274 31.2461C14.3072 35.7808 14.7384 39.6366 15.669 42.7666L18.8641 41.8167C18.0585 39.1071 17.6414 35.604 17.6607 31.2609L14.3274 31.2461ZM15.6719 42.7765C16.6129 45.871 17.9811 48.3589 19.8794 50.0697L22.111 47.5936C20.8133 46.424 19.6958 44.5519 18.8611 41.8068L15.6719 42.7765ZM19.8879 50.0773C21.7835 51.7623 24.0197 52.629 26.5291 52.629V49.2957C24.856 49.2957 23.4029 48.7419 22.1025 47.586L19.8879 50.0773ZM88.5704 0.861715H90.237V-0.804953H88.5704V0.861715ZM88.5704 61.4678V63.1344H90.237V61.4678H88.5704ZM73.9515 61.4678H72.2849V63.1344H73.9515V61.4678ZM73.9515 14.5336H75.6182V12.8669H73.9515V14.5336ZM73.5964 14.5336V12.8669H73.1273L72.7271 13.1116L73.5964 14.5336ZM60.0429 22.8196H58.3762V25.792L60.9122 24.2416L60.0429 22.8196ZM60.0429 10.1539L59.1629 8.73848L58.3762 9.22758V10.1539H60.0429ZM74.9873 0.861715V-0.804953H74.5114L74.1072 -0.553659L74.9873 0.861715ZM86.9037 0.861715V61.4678H90.237V0.861715H86.9037ZM88.5704 59.8011H73.9515V63.1344H88.5704V59.8011ZM75.6182 61.4678V14.5336H72.2849V61.4678H75.6182ZM73.9515 12.8669H73.5964V16.2003H73.9515V12.8669ZM72.7271 13.1116L59.1736 21.3976L60.9122 24.2416L74.4658 15.9556L72.7271 13.1116ZM61.7096 22.8196V10.1539H58.3762V22.8196H61.7096ZM60.923 11.5692L75.8673 2.27709L74.1072 -0.553659L59.1629 8.73848L60.923 11.5692ZM74.9873 2.52838H88.5704V-0.804953H74.9873V2.52838Z" fill="#2C2C2C"/>
</svg>
