<svg width="106" height="63" viewBox="0 0 106 63" fill="none" xmlns="http://www.w3.org/2000/svg">
<path d="M12.4719 59.1891L11.5541 60.5803L11.5591 60.5836L12.4719 59.1891ZM3.62369 48.3286L2.09676 48.9966L2.09779 48.9989L3.62369 48.3286ZM0.546041 31.2535L-1.12062 31.2486L0.546041 31.2535ZM3.65329 14.3264L2.13053 13.6489L2.1292 13.6519L3.65329 14.3264ZM12.4719 3.70263L13.3677 5.10813L13.3695 5.10694L12.4719 3.70263ZM39.8157 3.70263L38.9181 5.10696L38.9265 5.11229L39.8157 3.70263ZM48.6935 14.3264L50.2163 13.6489L48.6935 14.3264ZM51.7712 31.2535L50.1045 31.2486V31.2535H51.7712ZM48.6639 48.3582L47.137 47.6901L48.6639 48.3582ZM39.8157 59.2187L40.7268 60.6143L40.7285 60.6132L39.8157 59.2187ZM33.8083 46.1387L35.2329 47.0039L35.2352 47L33.8083 46.1387ZM36.7084 31.2535H35.0418L35.0418 31.2584L36.7084 31.2535ZM35.3768 20.4226L33.785 20.9166L33.786 20.9197L35.3768 20.4226ZM31.6777 14.0305L32.784 12.784L31.6777 14.0305ZM18.5385 16.6939L19.9597 17.5644L19.9621 17.5604L18.5385 16.6939ZM15.6088 31.2535L17.2754 31.2609L17.2754 31.2585L15.6088 31.2535ZM16.8813 42.2916L15.2837 42.7666L15.2867 42.7765L16.8813 42.2916ZM20.61 48.8316L19.4941 50.0697L19.5027 50.0773L20.61 48.8316ZM26.1438 61.2807C21.1291 61.2807 16.9005 60.0962 13.3848 57.7947L11.5591 60.5836C15.698 63.2931 20.5841 64.6141 26.1438 64.6141V61.2807ZM13.3898 57.798C9.86243 55.4706 7.10843 52.1169 5.14959 47.6582L2.09779 48.9989C4.28195 53.9705 7.42678 57.8571 11.5541 60.5803L13.3898 57.798ZM5.15062 47.6605C3.19447 43.1893 2.19347 37.7391 2.2127 31.2585L-1.12062 31.2486C-1.14084 38.065 -0.0900788 43.9981 2.09676 48.9966L5.15062 47.6605ZM2.2127 31.2585C2.23195 24.7721 3.24316 19.3715 5.17737 15.0009L2.1292 13.6519C-0.0401254 18.5538 -1.10041 24.4379 -1.12062 31.2486L2.2127 31.2585ZM5.17604 15.0039C7.1322 10.6072 9.87053 7.33688 13.3677 5.10813L11.5762 2.29712C7.45814 4.92159 4.31736 8.73378 2.13053 13.6489L5.17604 15.0039ZM13.3695 5.10694C16.8873 2.85848 21.1215 1.69978 26.1438 1.69978V-1.63355C20.5917 -1.63355 15.7113 -0.345909 11.5743 2.29832L13.3695 5.10694ZM26.1438 1.69978C31.1662 1.69978 35.4003 2.85848 38.9181 5.10694L40.7133 2.29832C36.5764 -0.345909 31.696 -1.63355 26.1438 -1.63355V1.69978ZM38.9265 5.11229C42.4617 7.34217 45.2166 10.6118 47.1708 15.0039L50.2163 13.6489C48.0274 8.72923 44.8638 4.91629 40.7049 2.29296L38.9265 5.11229ZM47.1708 15.0039C49.1226 19.3908 50.1238 24.7872 50.1045 31.2486L53.4378 31.2585C53.4581 24.4623 52.4075 18.5739 50.2163 13.6489L47.1708 15.0039ZM50.1045 31.2535C50.1045 37.7558 49.0938 43.2176 47.137 47.6901L50.1909 49.0262C52.3771 44.0291 53.4378 38.0877 53.4378 31.2535H50.1045ZM47.137 47.6901C45.1779 52.168 42.4251 55.5184 38.9028 57.8243L40.7285 60.6132C44.8609 57.908 48.007 54.018 50.1909 49.0262L47.137 47.6901ZM38.9046 57.8231C35.4107 60.1041 31.1824 61.2807 26.1438 61.2807V64.6141C31.7191 64.6141 36.6054 63.3049 40.7268 60.6143L38.9046 57.8231ZM26.1438 52.629C30.0026 52.629 33.0455 50.6054 35.2329 47.0039L32.3838 45.2735C30.665 48.1036 28.5982 49.2957 26.1438 49.2957V52.629ZM35.2352 47C37.4258 43.3712 38.3951 38.038 38.3751 31.2486L35.0418 31.2584C35.0612 37.845 34.0972 42.4352 32.3815 45.2774L35.2352 47ZM38.3751 31.2535C38.3751 26.7769 37.9233 22.9837 36.9676 19.9254L33.786 20.9197C34.6058 23.5432 35.0418 26.9707 35.0418 31.2535H38.3751ZM36.9685 19.9286C36.0265 16.8931 34.6658 14.4541 32.784 12.784L30.5714 15.2771C31.8461 16.4084 32.9515 18.2307 33.785 20.9166L36.9685 19.9286ZM32.784 12.784C30.9006 11.1125 28.6624 10.2628 26.1438 10.2628V13.5961C27.8472 13.5961 29.2982 14.1471 30.5714 15.2771L32.784 12.784ZM26.1438 10.2628C22.3091 10.2628 19.2848 12.2622 17.1148 15.8273L19.9621 17.5604C21.6589 14.7729 23.7049 13.5961 26.1438 13.5961V10.2628ZM17.1172 15.8233C14.9436 19.3721 13.9622 24.5971 13.9421 31.2485L17.2754 31.2585C17.2949 24.8102 18.2665 20.3288 19.9597 17.5644L17.1172 15.8233ZM13.9421 31.2461C13.922 35.7808 14.3532 39.6366 15.2837 42.7666L18.4788 41.8167C17.6733 39.1071 17.2561 35.604 17.2754 31.2609L13.9421 31.2461ZM15.2867 42.7765C16.2276 45.871 17.5959 48.3589 19.4942 50.0697L21.7257 47.5936C20.428 46.424 19.3105 44.5519 18.4759 41.8068L15.2867 42.7765ZM19.5027 50.0773C21.3983 51.7623 23.6344 52.629 26.1438 52.629V49.2957C24.4707 49.2957 23.0177 48.7419 21.7172 47.586L19.5027 50.0773ZM60.1607 61.4678H58.4941V63.1344H60.1607V61.4678ZM60.1607 50.9327L59.0629 49.6788L58.4941 50.1767V50.9327H60.1607ZM82.2666 31.579L83.3644 32.833L83.3747 32.8241L83.3848 32.8149L82.2666 31.579ZM86.4983 27.4656L87.7149 28.6049L87.7237 28.5953L86.4983 27.4656ZM89.1617 23.6778L90.6617 24.4043L90.666 24.3952L89.1617 23.6778ZM88.9841 15.2142L87.5591 16.0786L87.5655 16.089L88.9841 15.2142ZM85.9657 12.4325L85.2112 13.9186L85.9657 12.4325ZM77.147 12.4917L77.9289 13.9636L77.9378 13.9588L77.9467 13.954L77.147 12.4917ZM74.1877 15.4214L72.7297 14.6139L72.725 14.6225L72.7203 14.6312L74.1877 15.4214ZM73.152 20.097V21.7637H74.8186V20.097H73.152ZM59.273 20.097H57.6063V21.7637H59.273V20.097ZM62.0547 9.41404L63.4722 10.2907V10.2907L62.0547 9.41404ZM69.8672 2.48932L70.5913 3.99048L70.5949 3.9887L69.8672 2.48932ZM93.6006 2.34135L94.2889 0.823475L93.6006 2.34135ZM101.472 8.79258L100.089 9.72167L100.096 9.73302L101.472 8.79258ZM102.893 25.2166L101.35 24.5861V24.5861L102.893 25.2166ZM97.8916 32.7332L96.6389 31.6337L96.6345 31.6389L97.8916 32.7332ZM87.7116 42.5876L86.6177 41.3301L86.5994 41.3461L86.5816 41.3625L87.7116 42.5876ZM80.4614 49.2755L79.3314 48.0505L78.7947 48.5455V49.2755H80.4614ZM80.4614 49.6602H78.7947V51.3269H80.4614V49.6602ZM105.023 49.6602H106.69V47.9936H105.023V49.6602ZM105.023 61.4678V63.1344H106.69V61.4678H105.023ZM61.8274 61.4678V50.9327H58.4941V61.4678H61.8274ZM61.2586 52.1867L83.3644 32.833L81.1687 30.3251L59.0629 49.6788L61.2586 52.1867ZM83.3848 32.8149C85.0662 31.2936 86.5115 29.8898 87.7148 28.6049L85.2818 26.3264C84.1572 27.5273 82.7813 28.8657 81.1484 30.3432L83.3848 32.8149ZM87.7237 28.5953C88.9747 27.2384 89.965 25.8427 90.6617 24.4043L87.6617 22.9512C87.1352 24.0381 86.3499 25.1677 85.2729 26.336L87.7237 28.5953ZM90.666 24.3952C91.3904 22.8764 91.7457 21.2387 91.7457 19.5052H88.4124C88.4124 20.7704 88.1562 21.9144 87.6573 22.9603L90.666 24.3952ZM91.7457 19.5052C91.7457 17.5832 91.3254 15.8357 90.4027 14.3394L87.5655 16.089C88.1027 16.9602 88.4124 18.0733 88.4124 19.5052H91.7457ZM90.4091 14.3499C89.5144 12.8747 88.2732 11.7349 86.7201 10.9464L85.2112 13.9186C86.2228 14.4322 86.994 15.1469 87.5591 16.0786L90.4091 14.3499ZM86.7201 10.9464C85.1707 10.1598 83.4357 9.78927 81.5563 9.78927V13.1226C82.9914 13.1226 84.1959 13.4032 85.2112 13.9186L86.7201 10.9464ZM81.5563 9.78927C79.6464 9.78927 77.8929 10.1842 76.3473 11.0294L77.9467 13.954C78.9264 13.4182 80.1124 13.1226 81.5563 13.1226V9.78927ZM76.3651 11.0198C74.81 11.846 73.5921 13.0569 72.7297 14.6139L75.6457 16.2289C76.2038 15.2212 76.9587 14.479 77.9289 13.9636L76.3651 11.0198ZM72.7203 14.6312C71.8693 16.2115 71.4853 18.0567 71.4853 20.097H74.8186C74.8186 18.4679 75.1251 17.196 75.6552 16.2115L72.7203 14.6312ZM73.152 18.4304H59.273V21.7637H73.152V18.4304ZM60.9396 20.097C60.9396 16.2302 61.8065 12.9841 63.4722 10.2907L60.6372 8.53742C58.5939 11.8414 57.6063 15.7174 57.6063 20.097H60.9396ZM63.4722 10.2907C65.1502 7.57733 67.5065 5.47842 70.5913 3.99048L69.1431 0.988161C65.5202 2.73569 62.6682 5.25327 60.6372 8.53742L63.4722 10.2907ZM70.5949 3.9887C73.7028 2.48022 77.3618 1.69978 81.6155 1.69978V-1.63355C76.952 -1.63355 72.7787 -0.77652 69.1394 0.989943L70.5949 3.9887ZM81.6155 1.69978C86.0289 1.69978 89.7796 2.43859 92.9123 3.85924L94.2889 0.823475C90.635 -0.83353 86.3956 -1.63355 81.6155 -1.63355V1.69978ZM92.9123 3.85924C96.0584 5.28596 98.4268 7.24667 100.089 9.72164L102.856 7.86353C100.809 4.81451 97.9295 2.4744 94.2889 0.823475L92.9123 3.85924ZM100.096 9.73302C101.764 12.1725 102.617 15.024 102.617 18.3511H105.95C105.95 14.418 104.929 10.8972 102.848 7.85215L100.096 9.73302ZM102.617 18.3511C102.617 20.4299 102.201 22.5049 101.35 24.5861L104.436 25.8471C105.439 23.3907 105.95 20.8887 105.95 18.3511H102.617ZM101.35 24.5861C100.518 26.6216 98.9775 28.9694 96.6389 31.6337L99.1442 33.8326C101.619 31.0124 103.413 28.3492 104.436 25.8471L101.35 24.5861ZM96.6345 31.6389C94.3187 34.2991 90.9893 37.5271 86.6177 41.3301L88.8055 43.845C93.2329 39.9934 96.6901 36.6517 99.1487 33.8275L96.6345 31.6389ZM86.5816 41.3625L79.3314 48.0505L81.5915 50.5006L88.8417 43.8126L86.5816 41.3625ZM78.7947 49.2755V49.6602H82.1281V49.2755H78.7947ZM80.4614 51.3269H105.023V47.9936H80.4614V51.3269ZM103.357 49.6602V61.4678H106.69V49.6602H103.357ZM105.023 59.8011H60.1607V63.1344H105.023V59.8011Z" fill="#2C2C2C"/>
</svg>
