<svg width="108" height="63" viewBox="0 0 108 63" fill="none" xmlns="http://www.w3.org/2000/svg">
<path d="M12.8635 59.1891L11.9457 60.5803L11.9507 60.5836L12.8635 59.1891ZM4.0153 48.3286L2.48836 48.9966L2.48939 48.9989L4.0153 48.3286ZM0.937643 31.2535L-0.729016 31.2486L0.937643 31.2535ZM4.04489 14.3264L2.52213 13.6489L2.5208 13.6519L4.04489 14.3264ZM12.8635 3.70263L13.7593 5.10813L13.7611 5.10694L12.8635 3.70263ZM40.2073 3.70263L39.3097 5.10696L39.3181 5.11229L40.2073 3.70263ZM49.0851 14.3264L50.6079 13.6489L49.0851 14.3264ZM52.1628 31.2535L50.4961 31.2486V31.2535H52.1628ZM49.0555 48.3582L47.5286 47.6901L49.0555 48.3582ZM40.2073 59.2187L41.1184 60.6143L41.1201 60.6132L40.2073 59.2187ZM34.2 46.1387L35.6245 47.0039L35.6268 47L34.2 46.1387ZM37.1 31.2535H35.4334L35.4334 31.2584L37.1 31.2535ZM35.7684 20.4226L34.1766 20.9166L34.1776 20.9197L35.7684 20.4226ZM32.0693 14.0305L33.1756 12.784L32.0693 14.0305ZM18.9301 16.6939L20.3513 17.5644L20.3537 17.5604L18.9301 16.6939ZM16.0004 31.2535L17.667 31.2609L17.667 31.2585L16.0004 31.2535ZM17.2729 42.2916L15.6753 42.7666L15.6783 42.7765L17.2729 42.2916ZM21.0016 48.8316L19.8857 50.0697L19.8943 50.0773L21.0016 48.8316ZM26.5354 61.2807C21.5207 61.2807 17.2921 60.0962 13.7764 57.7947L11.9507 60.5836C16.0896 63.2931 20.9757 64.6141 26.5354 64.6141V61.2807ZM13.7814 57.798C10.254 55.4706 7.50003 52.1169 5.5412 47.6582L2.48939 48.9989C4.67355 53.9705 7.81838 57.8571 11.9457 60.5803L13.7814 57.798ZM5.54222 47.6605C3.58607 43.1893 2.58507 37.7391 2.6043 31.2585L-0.729016 31.2486C-0.749243 38.065 0.301522 43.9981 2.48837 48.9966L5.54222 47.6605ZM2.6043 31.2585C2.62355 24.7721 3.63476 19.3715 5.56897 15.0009L2.5208 13.6519C0.351476 18.5538 -0.708806 24.4379 -0.729016 31.2486L2.6043 31.2585ZM5.56764 15.0039C7.5238 10.6072 10.2621 7.33688 13.7593 5.10813L11.9678 2.29712C7.84974 4.92159 4.70896 8.73378 2.52213 13.6489L5.56764 15.0039ZM13.7611 5.10694C17.2789 2.85848 21.5131 1.69978 26.5354 1.69978V-1.63355C20.9833 -1.63355 16.1029 -0.345909 11.9659 2.29832L13.7611 5.10694ZM26.5354 1.69978C31.5578 1.69978 35.7919 2.85848 39.3097 5.10694L41.1049 2.29832C36.968 -0.345909 32.0876 -1.63355 26.5354 -1.63355V1.69978ZM39.3181 5.11229C42.8533 7.34217 45.6082 10.6118 47.5624 15.0039L50.6079 13.6489C48.419 8.72923 45.2554 4.91629 41.0965 2.29296L39.3181 5.11229ZM47.5624 15.0039C49.5142 19.3908 50.5154 24.7872 50.4961 31.2486L53.8294 31.2585C53.8497 24.4623 52.7991 18.5739 50.6079 13.6489L47.5624 15.0039ZM50.4961 31.2535C50.4961 37.7558 49.4854 43.2176 47.5286 47.6901L50.5825 49.0262C52.7687 44.0291 53.8294 38.0877 53.8294 31.2535H50.4961ZM47.5286 47.6901C45.5695 52.168 42.8167 55.5184 39.2944 57.8243L41.1201 60.6132C45.2525 57.908 48.3986 54.018 50.5825 49.0262L47.5286 47.6901ZM39.2962 57.8231C35.8023 60.1041 31.574 61.2807 26.5354 61.2807V64.6141C32.1107 64.6141 36.997 63.3049 41.1184 60.6143L39.2962 57.8231ZM26.5354 52.629C30.3942 52.629 33.4371 50.6054 35.6245 47.0039L32.7754 45.2735C31.0566 48.1036 28.9898 49.2957 26.5354 49.2957V52.629ZM35.6268 47C37.8174 43.3712 38.7867 38.038 38.7667 31.2486L35.4334 31.2584C35.4528 37.845 34.4888 42.4352 32.7731 45.2774L35.6268 47ZM38.7667 31.2535C38.7667 26.7769 38.3149 22.9837 37.3592 19.9254L34.1776 20.9197C34.9974 23.5432 35.4334 26.9707 35.4334 31.2535H38.7667ZM37.3601 19.9286C36.4181 16.8931 35.0574 14.4541 33.1756 12.784L30.963 15.2771C32.2377 16.4084 33.3431 18.2307 34.1766 20.9166L37.3601 19.9286ZM33.1756 12.784C31.2922 11.1125 29.054 10.2628 26.5354 10.2628V13.5961C28.2388 13.5961 29.6898 14.1471 30.963 15.2771L33.1756 12.784ZM26.5354 10.2628C22.7007 10.2628 19.6764 12.2622 17.5064 15.8273L20.3537 17.5604C22.0505 14.7729 24.0965 13.5961 26.5354 13.5961V10.2628ZM17.5088 15.8233C15.3352 19.3721 14.3538 24.5971 14.3337 31.2485L17.667 31.2585C17.6865 24.8102 18.6581 20.3288 20.3513 17.5644L17.5088 15.8233ZM14.3337 31.2461C14.3136 35.7808 14.7448 39.6366 15.6753 42.7666L18.8704 41.8167C18.0649 39.1071 17.6477 35.604 17.667 31.2609L14.3337 31.2461ZM15.6783 42.7765C16.6192 45.871 17.9875 48.3589 19.8858 50.0697L22.1173 47.5936C20.8196 46.424 19.7021 44.5519 18.8675 41.8068L15.6783 42.7765ZM19.8943 50.0773C21.7899 51.7623 24.026 52.629 26.5354 52.629V49.2957C24.8623 49.2957 23.4093 48.7419 22.1088 47.586L19.8943 50.0773ZM71.3241 59.9289L70.6402 61.4489L70.6504 61.4534L71.3241 59.9289ZM62.9198 53.3298L61.5752 54.3145L62.9198 53.3298ZM59.7829 43.6529V41.9862H58.0981L58.1164 43.6709L59.7829 43.6529ZM74.5201 43.6529L76.1851 43.5784L76.1139 41.9862H74.5201V43.6529ZM75.7926 47.1745L74.4716 48.1906L74.4764 48.1968L74.4812 48.203L75.7926 47.1745ZM79.0182 49.5419L78.3725 51.0784L79.0182 49.5419ZM88.2512 49.4827L88.9511 50.9953L88.9609 50.9907L88.2512 49.4827ZM91.388 46.9081L92.7593 47.8555L92.7672 47.8439L91.388 46.9081ZM92.483 43.1202L90.8165 43.0971L90.8161 43.1202L90.8165 43.1434L92.483 43.1202ZM91.2697 39.3324L89.9363 40.3324H89.9363L91.2697 39.3324ZM87.7481 36.7578L87.1186 38.301L87.1257 38.3039L87.7481 36.7578ZM76.5325 35.8404H74.8658V37.5071H76.5325V35.8404ZM76.5325 25.4237V23.7571H74.8658V25.4237H76.5325ZM87.1563 24.536L86.4997 23.004L86.4917 23.0075L87.1563 24.536ZM90.3819 22.0502L91.733 23.026L91.7373 23.0201L91.7414 23.0142L90.3819 22.0502ZM91.5064 18.3215L89.8399 18.2973L89.8396 18.3211L89.8399 18.3449L91.5064 18.3215ZM90.5298 14.7407L89.115 15.6217L89.1248 15.6374L89.1349 15.6528L90.5298 14.7407ZM87.7777 12.3141L87.0425 13.8099L87.0524 13.8147L87.7777 12.3141ZM79.3142 12.3141L78.6521 10.7846L78.6437 10.7883L79.3142 12.3141ZM76.2069 14.7407L77.5493 15.7285V15.7285L76.2069 14.7407ZM74.9936 18.3806V20.0473H76.6134L76.6596 18.4282L74.9936 18.3806ZM60.9962 18.3806L59.3297 18.3624L59.3113 20.0473H60.9962V18.3806ZM64.0147 8.85177L65.3676 9.82511L65.3709 9.8205L64.0147 8.85177ZM72.0639 2.37095L71.3716 0.854872L71.3683 0.856398L72.0639 2.37095ZM95.1759 2.31176L94.4781 3.82529L95.1759 2.31176ZM102.87 8.52625L101.504 9.48134L101.508 9.48617L102.87 8.52625ZM105.622 17.3745H103.955L103.956 17.3841L105.622 17.3745ZM102.278 25.8084L101.11 24.6195L101.105 24.6247L102.278 25.8084ZM93.6667 29.8923L93.4258 28.2431L92 28.4513V29.8923H93.6667ZM93.6667 30.3657H92V31.8478L93.472 32.021L93.6667 30.3657ZM104.291 34.923L103.088 36.0775L103.093 36.0824L104.291 34.923ZM107.871 44.2448L106.205 44.2359V44.2448H107.871ZM104.764 53.5961L103.438 52.5869L103.436 52.5884L104.764 53.5961ZM96.1821 59.9881L96.8296 61.5239L96.8336 61.5222L96.1821 59.9881ZM83.6051 60.6297C79.1789 60.6297 75.3214 59.8735 71.9979 58.4045L70.6504 61.4534C74.4686 63.141 78.7984 63.963 83.6051 63.963V60.6297ZM72.0081 58.4091C68.6872 56.9147 66.126 54.8868 64.2644 52.345L61.5752 54.3145C63.8171 57.3757 66.8588 59.7472 70.6402 61.4488L72.0081 58.4091ZM64.2644 52.345C62.4291 49.8391 61.4854 46.9556 61.4495 43.6349L58.1164 43.6709C58.1594 47.6498 59.3069 51.2175 61.5752 54.3145L64.2644 52.345ZM59.7829 45.3196H74.5201V41.9862H59.7829V45.3196ZM72.8551 43.7275C72.9293 45.3829 73.469 46.8872 74.4716 48.1906L77.1137 46.1583C76.538 45.4099 76.2294 44.5666 76.1851 43.5784L72.8551 43.7275ZM74.4812 48.203C75.4709 49.4648 76.7906 50.4135 78.3725 51.0784L79.664 48.0054C78.5234 47.526 77.6927 46.8964 77.1041 46.1459L74.4812 48.203ZM78.3725 51.0784C79.9709 51.7501 81.7448 52.0667 83.6643 52.0667V48.7334C82.1116 48.7334 80.7882 48.4779 79.664 48.0054L78.3725 51.0784ZM83.6643 52.0667C85.5963 52.0667 87.3718 51.726 88.9511 50.9953L87.5513 47.9701C86.487 48.4626 85.2045 48.7334 83.6643 48.7334V52.0667ZM88.9609 50.9907C90.5348 50.2501 91.8224 49.2115 92.7593 47.8555L90.0168 45.9607C89.4543 46.7749 88.6507 47.4527 87.5415 47.9747L88.9609 50.9907ZM92.7672 47.8439C93.7212 46.438 94.1736 44.836 94.1495 43.0971L90.8165 43.1434C90.8318 44.2454 90.5542 45.1687 90.0089 45.9723L92.7672 47.8439ZM94.1495 43.1434C94.1742 41.3658 93.6595 39.741 92.603 38.3324L89.9363 40.3324C90.5371 41.1333 90.8312 42.0337 90.8165 43.0971L94.1495 43.1434ZM92.603 38.3324C91.5603 36.9421 90.1191 35.9157 88.3706 35.2117L87.1257 38.3039C88.4153 38.8231 89.3218 39.513 89.9363 40.3324L92.603 38.3324ZM88.3776 35.2146C86.6328 34.5029 84.6336 34.1737 82.4214 34.1737V37.5071C84.3127 37.5071 85.8647 37.7895 87.1187 38.301L88.3776 35.2146ZM82.4214 34.1737H76.5325V37.5071H82.4214V34.1737ZM78.1991 35.8404V25.4237H74.8658V35.8404H78.1991ZM76.5325 27.0904H82.4214V23.7571H76.5325V27.0904ZM82.4214 27.0904C84.3985 27.0904 86.2108 26.7644 87.8208 26.0644L86.4917 23.0075C85.3792 23.4912 84.0349 23.7571 82.4214 23.7571V27.0904ZM87.8128 26.0679C89.4309 25.3744 90.7626 24.3697 91.733 23.026L89.0308 21.0743C88.4624 21.8613 87.6436 22.5138 86.4997 23.004L87.8128 26.0679ZM91.7414 23.0142C92.7266 21.6249 93.1973 20.0321 93.1729 18.298L89.8399 18.3449C89.8549 19.4123 89.576 20.3052 89.0223 21.0861L91.7414 23.0142ZM93.1729 18.3456C93.1969 16.6904 92.7972 15.163 91.9248 13.8287L89.1349 15.6528C89.604 16.3703 89.8554 17.23 89.8399 18.2973L93.1729 18.3456ZM91.9447 13.8598C91.1157 12.5284 89.9506 11.5132 88.503 10.8135L87.0524 13.8147C87.9723 14.2593 88.642 14.8619 89.115 15.6217L91.9447 13.8598ZM88.5129 10.8184C87.0813 10.1147 85.4701 9.78927 83.7235 9.78927V13.1226C85.0546 13.1226 86.1462 13.3693 87.0425 13.8099L88.5129 10.8184ZM83.7235 9.78927C81.9061 9.78927 80.2072 10.1115 78.6521 10.7846L79.9762 13.8437C81.0647 13.3725 82.3054 13.1226 83.7235 13.1226V9.78927ZM78.6437 10.7883C77.1007 11.4663 75.8232 12.4502 74.8645 13.7529L77.5493 15.7285C78.1295 14.9401 78.9235 14.3062 79.9846 13.84L78.6437 10.7883ZM74.8645 13.7529C73.8809 15.0897 73.3761 16.636 73.3276 18.3331L76.6596 18.4282C76.69 17.3633 76.9941 16.483 77.5493 15.7285L74.8645 13.7529ZM74.9936 16.714H60.9962V20.0473H74.9936V16.714ZM62.6628 18.3989C62.6988 15.1067 63.6092 12.2693 65.3676 9.8251L62.6618 7.87844C60.4745 10.9188 59.3726 14.434 59.3297 18.3624L62.6628 18.3989ZM65.3709 9.8205C67.1584 7.31808 69.6031 5.33526 72.7596 3.8855L71.3683 0.856398C67.7381 2.52374 64.8167 4.86147 62.6585 7.88304L65.3709 9.8205ZM72.7563 3.88702C75.9195 2.44252 79.5639 1.69978 83.7235 1.69978V-1.63355C79.1631 -1.63355 75.0344 -0.817736 71.3716 0.854874L72.7563 3.88702ZM83.7235 1.69978C87.8694 1.69978 91.4409 2.42493 94.4781 3.82529L95.8738 0.798231C92.3216 -0.839603 88.2581 -1.63355 83.7235 -1.63355V1.69978ZM94.4781 3.82529C97.5409 5.2375 99.8603 7.13035 101.504 9.48133L104.236 7.57117C102.21 4.67436 99.4003 2.42421 95.8738 0.798231L94.4781 3.82529ZM101.508 9.48617C103.137 11.7993 103.956 14.411 103.956 17.3745H107.289C107.289 13.7487 106.272 10.4615 104.233 7.56633L101.508 9.48617ZM103.956 17.3841C103.973 20.3879 103.01 22.7534 101.11 24.6196L103.446 26.9973C106.045 24.4443 107.311 21.1872 107.289 17.3649L103.956 17.3841ZM101.105 24.6247C99.1612 26.5513 96.6331 27.7746 93.4258 28.2431L93.9076 31.5414C97.7237 30.984 100.937 29.4848 103.451 26.9922L101.105 24.6247ZM92 29.8923V30.3657H95.3334V29.8923H92ZM93.472 32.021C97.9255 32.5449 101.053 33.9584 103.088 36.0774L105.493 33.7686C102.753 30.9161 98.7986 29.2913 93.8614 28.7105L93.472 32.021ZM103.093 36.0824C105.172 38.2293 106.222 40.9058 106.205 44.2359L109.538 44.2536C109.56 40.1264 108.223 36.5883 105.488 33.7637L103.093 36.0824ZM106.205 44.2448C106.205 47.4023 105.282 50.1627 103.438 52.5869L106.09 54.6053C108.389 51.5844 109.538 48.1106 109.538 44.2448H106.205ZM103.436 52.5884C101.589 55.0222 98.9798 56.9891 95.5305 58.4541L96.8336 61.5222C100.723 59.8701 103.836 57.5755 106.091 54.6038L103.436 52.5884ZM95.5346 58.4524C92.1256 59.8897 88.1602 60.6297 83.6051 60.6297V63.963C88.5198 63.963 92.9389 63.1643 96.8296 61.5239L95.5346 58.4524Z" fill="#2C2C2C"/>
</svg>
