<svg width="111" height="63" viewBox="0 0 111 63" fill="none" xmlns="http://www.w3.org/2000/svg">
<path d="M12.6588 59.1891L11.7409 60.5803L11.7459 60.5836L12.6588 59.1891ZM3.81054 48.3286L2.28361 48.9966L2.28464 48.9989L3.81054 48.3286ZM0.732885 31.2535L-0.933774 31.2486L0.732885 31.2535ZM3.84013 14.3264L2.31737 13.6489L2.31604 13.6519L3.84013 14.3264ZM12.6588 3.70263L13.5545 5.10813L13.5564 5.10694L12.6588 3.70263ZM40.0025 3.70263L39.1049 5.10696L39.1134 5.11229L40.0025 3.70263ZM48.8804 14.3264L50.4031 13.6489L48.8804 14.3264ZM51.958 31.2535L50.2914 31.2486V31.2535H51.958ZM48.8508 48.3582L47.3238 47.6901L48.8508 48.3582ZM40.0025 59.2187L40.9136 60.6143L40.9154 60.6132L40.0025 59.2187ZM33.9952 46.1387L35.4197 47.0039L35.422 47L33.9952 46.1387ZM36.8953 31.2535H35.2286L35.2286 31.2584L36.8953 31.2535ZM35.5636 20.4226L33.9718 20.9166L33.9728 20.9197L35.5636 20.4226ZM31.8645 14.0305L32.9708 12.784L31.8645 14.0305ZM18.7253 16.6939L20.1466 17.5644L20.149 17.5604L18.7253 16.6939ZM15.7956 31.2535L17.4623 31.2609L17.4623 31.2585L15.7956 31.2535ZM17.0681 42.2916L15.4705 42.7666L15.4735 42.7765L17.0681 42.2916ZM20.7968 48.8316L19.681 50.0697L19.6895 50.0773L20.7968 48.8316ZM26.3307 61.2807C21.3159 61.2807 17.0874 60.0962 13.5716 57.7947L11.7459 60.5836C15.8849 63.2931 20.7709 64.6141 26.3307 64.6141V61.2807ZM13.5767 57.798C10.0493 55.4706 7.29527 52.1169 5.33644 47.6582L2.28464 48.9989C4.46879 53.9705 7.61362 57.8571 11.7409 60.5803L13.5767 57.798ZM5.33747 47.6605C3.38132 43.1893 2.38031 37.7391 2.39954 31.2585L-0.933774 31.2486C-0.954001 38.065 0.0967648 43.9981 2.28361 48.9966L5.33747 47.6605ZM2.39954 31.2585C2.41879 24.7721 3.43001 19.3715 5.36422 15.0009L2.31604 13.6519C0.146719 18.5538 -0.913564 24.4379 -0.933774 31.2486L2.39954 31.2585ZM5.36288 15.0039C7.31905 10.6072 10.0574 7.33688 13.5545 5.10813L11.7631 2.29712C7.64498 4.92159 4.50421 8.73378 2.31738 13.6489L5.36288 15.0039ZM13.5564 5.10694C17.0741 2.85848 21.3083 1.69978 26.3307 1.69978V-1.63355C20.7785 -1.63355 15.8981 -0.345909 11.7612 2.29832L13.5564 5.10694ZM26.3307 1.69978C31.353 1.69978 35.5872 2.85848 39.1049 5.10694L40.9001 2.29832C36.7632 -0.345909 31.8828 -1.63355 26.3307 -1.63355V1.69978ZM39.1134 5.11229C42.6485 7.34217 45.4035 10.6118 47.3576 15.0039L50.4031 13.6489C48.2143 8.72923 45.0506 4.91629 40.8917 2.29296L39.1134 5.11229ZM47.3576 15.0039C49.3094 19.3908 50.3106 24.7872 50.2914 31.2486L53.6247 31.2585C53.6449 24.4623 52.5943 18.5739 50.4031 13.6489L47.3576 15.0039ZM50.2914 31.2535C50.2914 37.7558 49.2806 43.2176 47.3238 47.6901L50.3777 49.0262C52.564 44.0291 53.6247 38.0877 53.6247 31.2535H50.2914ZM47.3238 47.6901C45.3648 52.168 42.612 55.5184 39.0897 57.8243L40.9154 60.6132C45.0478 57.908 48.1938 54.018 50.3777 49.0262L47.3238 47.6901ZM39.0914 57.8231C35.5976 60.1041 31.3693 61.2807 26.3307 61.2807V64.6141C31.906 64.6141 36.7923 63.3049 40.9136 60.6143L39.0914 57.8231ZM26.3307 52.629C30.1894 52.629 33.2323 50.6054 35.4197 47.0039L32.5707 45.2735C30.8518 48.1036 28.785 49.2957 26.3307 49.2957V52.629ZM35.422 47C37.6126 43.3712 38.582 38.038 38.562 31.2486L35.2286 31.2584C35.2481 37.845 34.284 42.4352 32.5683 45.2774L35.422 47ZM38.562 31.2535C38.562 26.7769 38.1101 22.9837 37.1544 19.9254L33.9728 20.9197C34.7927 23.5432 35.2286 26.9707 35.2286 31.2535H38.562ZM37.1554 19.9286C36.2133 16.8931 34.8527 14.4541 32.9708 12.784L30.7582 15.2771C32.0329 16.4084 33.1383 18.2307 33.9718 20.9166L37.1554 19.9286ZM32.9708 12.784C31.0875 11.1125 28.8492 10.2628 26.3307 10.2628V13.5961C28.034 13.5961 29.485 14.1471 30.7582 15.2771L32.9708 12.784ZM26.3307 10.2628C22.4959 10.2628 19.4717 12.2622 17.3016 15.8273L20.149 17.5604C21.8457 14.7729 23.8917 13.5961 26.3307 13.5961V10.2628ZM17.3041 15.8233C15.1305 19.3721 14.149 24.5971 14.129 31.2485L17.4623 31.2585C17.4817 24.8102 18.4534 20.3288 20.1466 17.5644L17.3041 15.8233ZM14.129 31.2461C14.1088 35.7808 14.54 39.6366 15.4706 42.7666L18.6657 41.8167C17.8601 39.1071 17.443 35.604 17.4623 31.2609L14.129 31.2461ZM15.4735 42.7765C16.4144 45.871 17.7827 48.3589 19.681 50.0697L21.9126 47.5936C20.6149 46.424 19.4974 44.5519 18.6627 41.8068L15.4735 42.7765ZM19.6895 50.0773C21.5851 51.7623 23.8213 52.629 26.3307 52.629V49.2957C24.6576 49.2957 23.2045 48.7419 21.9041 47.586L19.6895 50.0773ZM59.6078 51.4062H57.9411V53.0729H59.6078V51.4062ZM59.6078 39.9834L58.2006 39.0903L57.9411 39.4992V39.9834H59.6078ZM84.4361 0.861715V-0.804953H83.5199L83.0289 -0.0313549L84.4361 0.861715ZM94.5865 0.861715H96.2531V-0.804953H94.5865V0.861715ZM94.5865 16.3683V18.035H96.2531V16.3683H94.5865ZM88.6975 16.3683V14.7017H87.7785L87.288 15.4788L88.6975 16.3683ZM74.1674 39.3915L72.758 38.502L72.5008 38.9096V39.3915H74.1674ZM74.1674 39.865H72.5008V41.5317H74.1674V39.865ZM110.123 39.865H111.789V38.1984H110.123V39.865ZM110.123 51.4062V53.0729H111.789V51.4062H110.123ZM88.875 61.4678H87.2084V63.1344H88.875V61.4678ZM88.875 47.9143L87.2113 47.8158L87.2084 47.865V47.9143H88.875ZM89.171 42.9131L90.8347 43.0115L90.8376 42.9624V42.9131H89.171ZM89.171 0.861715V-0.804953H87.5043V0.861715H89.171ZM102.872 0.861715H104.539V-0.804953H102.872V0.861715ZM102.872 61.4678V63.1344H104.539V61.4678H102.872ZM61.2744 51.4062V39.9834H57.9411V51.4062H61.2744ZM61.015 40.8765L85.8433 1.75478L83.0289 -0.0313549L58.2006 39.0903L61.015 40.8765ZM84.4361 2.52838H94.5865V-0.804953H84.4361V2.52838ZM92.9198 0.861715V16.3683H96.2531V0.861715H92.9198ZM94.5865 14.7017H88.6975V18.035H94.5865V14.7017ZM87.288 15.4788L72.758 38.502L75.5769 40.2811L90.1069 17.2579L87.288 15.4788ZM72.5008 39.3915V39.865H75.8341V39.3915H72.5008ZM74.1674 41.5317H110.123V38.1984H74.1674V41.5317ZM108.456 39.865V51.4062H111.789V39.865H108.456ZM110.123 49.7396H59.6078V53.0729H110.123V49.7396ZM90.5417 61.4678V47.9143H87.2084V61.4678H90.5417ZM90.5388 48.0127L90.8347 43.0115L87.5072 42.8146L87.2113 47.8158L90.5388 48.0127ZM90.8376 42.9131V0.861715H87.5043V42.9131H90.8376ZM89.171 2.52838H102.872V-0.804953H89.171V2.52838ZM101.206 0.861715V61.4678H104.539V0.861715H101.206ZM102.872 59.8011H88.875V63.1344H102.872V59.8011Z" fill="#2C2C2C"/>
</svg>
